<svg width="133" height="32" viewBox="0 0 133 32" fill="none" xmlns="http://www.w3.org/2000/svg">
<path d="M10.296 24L6.6 17.472H5.016V24H1.656V7.248H7.944C9.24 7.248 10.344 7.48 11.256 7.944C12.168 8.392 12.848 9.008 13.296 9.792C13.76 10.56 13.992 11.424 13.992 12.384C13.992 13.488 13.672 14.488 13.032 15.384C12.392 16.264 11.44 16.872 10.176 17.208L14.184 24H10.296ZM5.016 14.952H7.824C8.736 14.952 9.416 14.736 9.864 14.304C10.312 13.856 10.536 13.24 10.536 12.456C10.536 11.688 10.312 11.096 9.864 10.68C9.416 10.248 8.736 10.032 7.824 10.032H5.016V14.952ZM29.391 17.064C29.391 17.544 29.359 17.976 29.295 18.36H19.575C19.655 19.32 19.991 20.072 20.583 20.616C21.175 21.16 21.903 21.432 22.767 21.432C24.015 21.432 24.903 20.896 25.431 19.824H29.055C28.671 21.104 27.935 22.16 26.847 22.992C25.759 23.808 24.423 24.216 22.839 24.216C21.559 24.216 20.407 23.936 19.383 23.376C18.375 22.8 17.583 21.992 17.007 20.952C16.447 19.912 16.167 18.712 16.167 17.352C16.167 15.976 16.447 14.768 17.007 13.728C17.567 12.688 18.351 11.888 19.359 11.328C20.367 10.768 21.527 10.488 22.839 10.488C24.103 10.488 25.231 10.76 26.223 11.304C27.231 11.848 28.007 12.624 28.551 13.632C29.111 14.624 29.391 15.768 29.391 17.064ZM25.911 16.104C25.895 15.24 25.583 14.552 24.975 14.04C24.367 13.512 23.623 13.248 22.743 13.248C21.911 13.248 21.207 13.504 20.631 14.016C20.071 14.512 19.727 15.208 19.599 16.104H25.911ZM37.3875 20.904L40.7475 10.704H44.3235L39.4035 24H35.3235L30.4275 10.704H34.0275L37.3875 20.904ZM47.9147 9.12C47.3227 9.12 46.8267 8.936 46.4267 8.568C46.0427 8.184 45.8507 7.712 45.8507 7.152C45.8507 6.592 46.0427 6.128 46.4267 5.76C46.8267 5.376 47.3227 5.184 47.9147 5.184C48.5067 5.184 48.9947 5.376 49.3787 5.76C49.7787 6.128 49.9787 6.592 49.9787 7.152C49.9787 7.712 49.7787 8.184 49.3787 8.568C48.9947 8.936 48.5067 9.12 47.9147 9.12ZM49.5707 10.704V24H46.2107V10.704H49.5707ZM58.4344 20.904L61.7944 10.704H65.3704L60.4504 24H56.3704L51.4744 10.704H55.0744L58.4344 20.904ZM70.6176 6.24V24H67.2576V6.24H70.6176ZM73.0732 17.304C73.0732 15.96 73.3372 14.768 73.8652 13.728C74.4093 12.688 75.1373 11.888 76.0493 11.328C76.9773 10.768 78.0093 10.488 79.1453 10.488C80.1373 10.488 81.0013 10.688 81.7373 11.088C82.4893 11.488 83.0893 11.992 83.5373 12.6V10.704H86.9213V24H83.5373V22.056C83.1053 22.68 82.5053 23.2 81.7373 23.616C80.9853 24.016 80.1133 24.216 79.1213 24.216C78.0013 24.216 76.9773 23.928 76.0493 23.352C75.1373 22.776 74.4093 21.968 73.8652 20.928C73.3372 19.872 73.0732 18.664 73.0732 17.304ZM83.5373 17.352C83.5373 16.536 83.3773 15.84 83.0573 15.264C82.7373 14.672 82.3053 14.224 81.7613 13.92C81.2173 13.6 80.6333 13.44 80.0093 13.44C79.3853 13.44 78.8093 13.592 78.2812 13.896C77.7533 14.2 77.3213 14.648 76.9853 15.24C76.6653 15.816 76.5053 16.504 76.5053 17.304C76.5053 18.104 76.6653 18.808 76.9853 19.416C77.3213 20.008 77.7533 20.464 78.2812 20.784C78.8253 21.104 79.4013 21.264 80.0093 21.264C80.6333 21.264 81.2173 21.112 81.7613 20.808C82.3053 20.488 82.7373 20.04 83.0573 19.464C83.3773 18.872 83.5373 18.168 83.5373 17.352Z" fill="#FEA830"/>
<path d="M91.6909 24.168C91.0829 24.168 90.5789 23.984 90.1789 23.616C89.7949 23.232 89.6029 22.76 89.6029 22.2C89.6029 21.64 89.7949 21.176 90.1789 20.808C90.5789 20.424 91.0829 20.232 91.6909 20.232C92.2829 20.232 92.7709 20.424 93.1549 20.808C93.5389 21.176 93.7309 21.64 93.7309 22.2C93.7309 22.76 93.5389 23.232 93.1549 23.616C92.7709 23.984 92.2829 24.168 91.6909 24.168ZM95.5732 17.352C95.5732 15.976 95.8533 14.776 96.4133 13.752C96.9733 12.712 97.7493 11.912 98.7413 11.352C99.7333 10.776 100.869 10.488 102.149 10.488C103.797 10.488 105.157 10.904 106.229 11.736C107.317 12.552 108.045 13.704 108.413 15.192H104.789C104.597 14.616 104.269 14.168 103.805 13.848C103.357 13.512 102.797 13.344 102.125 13.344C101.165 13.344 100.405 13.696 99.8453 14.4C99.2853 15.088 99.0053 16.072 99.0053 17.352C99.0053 18.616 99.2853 19.6 99.8453 20.304C100.405 20.992 101.165 21.336 102.125 21.336C103.485 21.336 104.373 20.728 104.789 19.512H108.413C108.045 20.952 107.317 22.096 106.229 22.944C105.141 23.792 103.781 24.216 102.149 24.216C100.869 24.216 99.7333 23.936 98.7413 23.376C97.7493 22.8 96.9733 22 96.4133 20.976C95.8533 19.936 95.5732 18.728 95.5732 17.352ZM116.779 24.216C115.499 24.216 114.347 23.936 113.323 23.376C112.299 22.8 111.491 21.992 110.899 20.952C110.323 19.912 110.035 18.712 110.035 17.352C110.035 15.992 110.331 14.792 110.923 13.752C111.531 12.712 112.355 11.912 113.395 11.352C114.435 10.776 115.595 10.488 116.875 10.488C118.155 10.488 119.315 10.776 120.355 11.352C121.395 11.912 122.211 12.712 122.803 13.752C123.411 14.792 123.715 15.992 123.715 17.352C123.715 18.712 123.403 19.912 122.779 20.952C122.171 21.992 121.339 22.8 120.283 23.376C119.243 23.936 118.075 24.216 116.779 24.216ZM116.779 21.288C117.387 21.288 117.955 21.144 118.483 20.856C119.027 20.552 119.459 20.104 119.779 19.512C120.099 18.92 120.259 18.2 120.259 17.352C120.259 16.088 119.923 15.12 119.251 14.448C118.595 13.76 117.787 13.416 116.827 13.416C115.867 13.416 115.059 13.76 114.403 14.448C113.763 15.12 113.443 16.088 113.443 17.352C113.443 18.616 113.755 19.592 114.379 20.28C115.019 20.952 115.819 21.288 116.779 21.288Z" fill="white"/>
</svg>
