<svg width="57" height="19" viewBox="0 0 57 19" fill="none" xmlns="http://www.w3.org/2000/svg">
<path d="M50.445 18.24C50.1427 18.6431 49.6925 18.9096 49.1937 18.9809C48.6949 19.0522 48.1881 18.9223 47.785 18.62C47.3819 18.3177 47.1154 17.8676 47.0441 17.3687C46.9728 16.8699 47.1027 16.3631 47.405 15.96L50.825 11.4L1.9 11.4C1.39609 11.4 0.912818 11.1998 0.556499 10.8435C0.20018 10.4872 3.37741e-06 10.0039 3.39944e-06 9.5C3.42147e-06 8.99609 0.20018 8.51282 0.556499 8.1565C0.912819 7.80018 1.39609 7.6 1.90001 7.6L50.825 7.6L47.405 3.04C47.2553 2.84039 47.1464 2.61325 47.0844 2.37154C47.0225 2.12984 47.0088 1.8783 47.0441 1.6313C47.0794 1.3843 47.163 1.14666 47.2901 0.931961C47.4172 0.717263 47.5854 0.529706 47.785 0.379999C47.9846 0.230292 48.2118 0.121367 48.4535 0.0594432C48.6952 -0.00248079 48.9467 -0.0161904 49.1937 0.0190959C49.4407 0.0543822 49.6783 0.137973 49.893 0.265098C50.1077 0.392222 50.2953 0.56039 50.445 0.759999L56.1336 8.3448L56.1583 8.3771L57 9.5L56.1583 10.621L56.1336 10.6552L50.445 18.24Z" fill="#FEA830"/>
</svg>
