<svg width="25" height="24" viewBox="0 0 25 24" fill="none" xmlns="http://www.w3.org/2000/svg">
<path d="M12.6415 6.5899C12.4075 6.71614 12.2616 6.95618 12.2616 7.21726V11.2827H4.23429C3.82896 11.2827 3.5 11.604 3.5 12C3.5 12.3959 3.82896 12.7172 4.23429 12.7172H12.2616V16.7827C12.2616 17.0447 12.4075 17.2848 12.6415 17.4101C12.8755 17.5372 13.1614 17.5286 13.3875 17.39L21.1573 12.6073C21.3708 12.4753 21.5 12.2467 21.5 12C21.5 11.7532 21.3708 11.5247 21.1573 11.3927L13.3875 6.60998C13.2681 6.5373 13.132 6.5 12.9959 6.5C12.8745 6.5 12.7521 6.5306 12.6415 6.5899Z" fill="white"/>
</svg>
