<svg width="29" height="29" viewBox="0 0 29 29" fill="none" xmlns="http://www.w3.org/2000/svg">
<path d="M22.6095 0H6.91965C3.39035 0 0.529297 2.86106 0.529297 6.39035V22.0802C0.529297 25.6095 3.39035 28.4706 6.91965 28.4706H22.6095C26.1388 28.4706 28.9999 25.6095 28.9999 22.0802V6.39035C28.9999 2.86106 26.1388 0 22.6095 0Z" fill="#F9F9F9"/>
<path d="M15 9.08108C16.6021 9.08108 16.7918 9.0872 17.4245 9.11606C18.0095 9.14274 18.3272 9.24048 18.5386 9.32265C18.8187 9.43149 19.0186 9.56151 19.2285 9.77146C19.4385 9.98143 19.5685 10.1813 19.6773 10.4614C19.7595 10.6728 19.8573 10.9905 19.8839 11.5755C19.9128 12.2081 19.9189 12.3979 19.9189 14C19.9189 15.602 19.9128 15.7918 19.8839 16.4245C19.8573 17.0095 19.7595 17.3272 19.6773 17.5386C19.5685 17.8187 19.4385 18.0185 19.2285 18.2285C19.0186 18.4384 18.8187 18.5685 18.5386 18.6773C18.3272 18.7595 18.0095 18.8572 17.4245 18.8839C16.7919 18.9128 16.6022 18.9189 15 18.9189C13.3978 18.9189 13.2081 18.9128 12.5755 18.8839C11.9905 18.8572 11.6728 18.7595 11.4614 18.6773C11.1813 18.5685 10.9814 18.4384 10.7715 18.2285C10.5615 18.0185 10.4315 17.8187 10.3227 17.5386C10.2405 17.3272 10.1427 17.0095 10.1161 16.4245C10.0872 15.7918 10.0811 15.602 10.0811 14C10.0811 12.3979 10.0872 12.2081 10.1161 11.5755C10.1427 10.9905 10.2405 10.6728 10.3227 10.4614C10.4315 10.1813 10.5615 9.98143 10.7715 9.77148C10.9814 9.56151 11.1813 9.43149 11.4614 9.32265C11.6728 9.24048 11.9905 9.14274 12.5755 9.11606C13.2082 9.0872 13.3979 9.08108 15 9.08108ZM15 8C13.3705 8 13.1662 8.00691 12.5262 8.03611C11.8876 8.06523 11.4514 8.16667 11.0698 8.31498C10.6752 8.46831 10.3406 8.67347 10.007 9.00703C9.67347 9.34061 9.46831 9.67521 9.315 10.0698C9.16667 10.4514 9.06523 10.8876 9.03611 11.5262C9.00691 12.1662 9 12.3705 9 14C9 15.6295 9.00691 15.8338 9.03611 16.4738C9.06523 17.1124 9.16667 17.5486 9.315 17.9302C9.46831 18.3247 9.67347 18.6593 10.007 18.9929C10.3406 19.3265 10.6752 19.5316 11.0698 19.685C11.4514 19.8333 11.8876 19.9347 12.5262 19.9639C13.1662 19.9931 13.3705 20 15 20C16.6295 20 16.8338 19.9931 17.4738 19.9639C18.1124 19.9347 18.5486 19.8333 18.9302 19.685C19.3248 19.5316 19.6594 19.3265 19.993 18.9929C20.3265 18.6593 20.5317 18.3247 20.685 17.9302C20.8333 17.5486 20.9348 17.1124 20.9639 16.4738C20.9931 15.8338 21 15.6295 21 14C21 12.3705 20.9931 12.1662 20.9639 11.5262C20.9348 10.8876 20.8333 10.4514 20.685 10.0698C20.5317 9.67521 20.3265 9.34061 19.993 9.00703C19.6594 8.67347 19.3248 8.46831 18.9302 8.31498C18.5486 8.16667 18.1124 8.06523 17.4738 8.03611C16.8338 8.00691 16.6295 8 15 8Z" fill="#646464"/>
<path d="M15.0025 10.9214C13.3008 10.9214 11.9214 12.3008 11.9214 14.0024C11.9214 15.7041 13.3008 17.0835 15.0025 17.0835C16.7041 17.0835 18.0835 15.7041 18.0835 14.0024C18.0835 12.3008 16.7041 10.9214 15.0025 10.9214ZM15.0025 16.0024C13.8979 16.0024 13.0025 15.107 13.0025 14.0024C13.0025 12.8979 13.8979 12.0025 15.0025 12.0025C16.107 12.0025 17.0025 12.8979 17.0025 14.0024C17.0025 15.107 16.107 16.0024 15.0025 16.0024Z" fill="#646464"/>
<path d="M18.9254 10.7981C18.9254 11.1958 18.603 11.5181 18.2053 11.5181C17.8077 11.5181 17.4854 11.1958 17.4854 10.7981C17.4854 10.4005 17.8077 10.0781 18.2053 10.0781C18.603 10.0781 18.9254 10.4005 18.9254 10.7981Z" fill="#646464"/>
</svg>
