<svg width="123" height="20" viewBox="0 0 123 20" fill="none" xmlns="http://www.w3.org/2000/svg">
<path d="M9.296 19L5.6 12.472H4.016V19H0.656V2.248H6.944C8.24 2.248 9.344 2.48 10.256 2.944C11.168 3.392 11.848 4.008 12.296 4.792C12.76 5.56 12.992 6.424 12.992 7.384C12.992 8.488 12.672 9.488 12.032 10.384C11.392 11.264 10.44 11.872 9.176 12.208L13.184 19H9.296ZM4.016 9.952H6.824C7.736 9.952 8.416 9.736 8.864 9.304C9.312 8.856 9.536 8.24 9.536 7.456C9.536 6.688 9.312 6.096 8.864 5.68C8.416 5.248 7.736 5.032 6.824 5.032H4.016V9.952ZM28.391 12.064C28.391 12.544 28.359 12.976 28.295 13.36H18.575C18.655 14.32 18.991 15.072 19.583 15.616C20.175 16.16 20.903 16.432 21.767 16.432C23.015 16.432 23.903 15.896 24.431 14.824H28.055C27.671 16.104 26.935 17.16 25.847 17.992C24.759 18.808 23.423 19.216 21.839 19.216C20.559 19.216 19.407 18.936 18.383 18.376C17.375 17.8 16.583 16.992 16.007 15.952C15.447 14.912 15.167 13.712 15.167 12.352C15.167 10.976 15.447 9.768 16.007 8.728C16.567 7.688 17.351 6.888 18.359 6.328C19.367 5.768 20.527 5.488 21.839 5.488C23.103 5.488 24.231 5.76 25.223 6.304C26.231 6.848 27.007 7.624 27.551 8.632C28.111 9.624 28.391 10.768 28.391 12.064ZM24.911 11.104C24.895 10.24 24.583 9.552 23.975 9.04C23.367 8.512 22.623 8.248 21.743 8.248C20.911 8.248 20.207 8.504 19.631 9.016C19.071 9.512 18.727 10.208 18.599 11.104H24.911ZM36.3875 15.904L39.7475 5.704H43.3235L38.4035 19H34.3235L29.4275 5.704H33.0275L36.3875 15.904ZM46.9147 4.12C46.3227 4.12 45.8267 3.936 45.4267 3.568C45.0427 3.184 44.8507 2.712 44.8507 2.152C44.8507 1.592 45.0427 1.128 45.4267 0.759999C45.8267 0.375999 46.3227 0.183999 46.9147 0.183999C47.5067 0.183999 47.9947 0.375999 48.3787 0.759999C48.7787 1.128 48.9787 1.592 48.9787 2.152C48.9787 2.712 48.7787 3.184 48.3787 3.568C47.9947 3.936 47.5067 4.12 46.9147 4.12ZM48.5707 5.704V19H45.2107V5.704H48.5707ZM57.4344 15.904L60.7944 5.704H64.3704L59.4504 19H55.3704L50.4744 5.704H54.0744L57.4344 15.904ZM69.6176 1.24V19H66.2576V1.24H69.6176ZM72.0732 12.304C72.0732 10.96 72.3372 9.768 72.8652 8.728C73.4093 7.688 74.1373 6.888 75.0493 6.328C75.9773 5.768 77.0093 5.488 78.1453 5.488C79.1373 5.488 80.0013 5.688 80.7373 6.088C81.4893 6.488 82.0893 6.992 82.5373 7.6V5.704H85.9213V19H82.5373V17.056C82.1053 17.68 81.5053 18.2 80.7373 18.616C79.9853 19.016 79.1133 19.216 78.1213 19.216C77.0013 19.216 75.9773 18.928 75.0493 18.352C74.1373 17.776 73.4093 16.968 72.8652 15.928C72.3372 14.872 72.0732 13.664 72.0732 12.304ZM82.5373 12.352C82.5373 11.536 82.3773 10.84 82.0573 10.264C81.7373 9.672 81.3053 9.224 80.7613 8.92C80.2173 8.6 79.6333 8.44 79.0093 8.44C78.3853 8.44 77.8093 8.592 77.2812 8.896C76.7533 9.2 76.3213 9.648 75.9853 10.24C75.6653 10.816 75.5053 11.504 75.5053 12.304C75.5053 13.104 75.6653 13.808 75.9853 14.416C76.3213 15.008 76.7533 15.464 77.2812 15.784C77.8253 16.104 78.4013 16.264 79.0093 16.264C79.6333 16.264 80.2173 16.112 80.7613 15.808C81.3053 15.488 81.7373 15.04 82.0573 14.464C82.3773 13.872 82.5373 13.168 82.5373 12.352Z" fill="#FEA830"/>
<path d="M90.6909 19.168C90.0829 19.168 89.5789 18.984 89.1789 18.616C88.7949 18.232 88.6029 17.76 88.6029 17.2C88.6029 16.64 88.7949 16.176 89.1789 15.808C89.5789 15.424 90.0829 15.232 90.6909 15.232C91.2829 15.232 91.7709 15.424 92.1549 15.808C92.5389 16.176 92.7309 16.64 92.7309 17.2C92.7309 17.76 92.5389 18.232 92.1549 18.616C91.7709 18.984 91.2829 19.168 90.6909 19.168ZM94.5732 12.352C94.5732 10.976 94.8533 9.776 95.4133 8.752C95.9733 7.712 96.7493 6.912 97.7413 6.352C98.7333 5.776 99.8693 5.488 101.149 5.488C102.797 5.488 104.157 5.904 105.229 6.736C106.317 7.552 107.045 8.704 107.413 10.192H103.789C103.597 9.616 103.269 9.168 102.805 8.848C102.357 8.512 101.797 8.344 101.125 8.344C100.165 8.344 99.4053 8.696 98.8453 9.4C98.2853 10.088 98.0053 11.072 98.0053 12.352C98.0053 13.616 98.2853 14.6 98.8453 15.304C99.4053 15.992 100.165 16.336 101.125 16.336C102.485 16.336 103.373 15.728 103.789 14.512H107.413C107.045 15.952 106.317 17.096 105.229 17.944C104.141 18.792 102.781 19.216 101.149 19.216C99.8693 19.216 98.7333 18.936 97.7413 18.376C96.7493 17.8 95.9733 17 95.4133 15.976C94.8533 14.936 94.5732 13.728 94.5732 12.352ZM115.779 19.216C114.499 19.216 113.347 18.936 112.323 18.376C111.299 17.8 110.491 16.992 109.899 15.952C109.323 14.912 109.035 13.712 109.035 12.352C109.035 10.992 109.331 9.792 109.923 8.752C110.531 7.712 111.355 6.912 112.395 6.352C113.435 5.776 114.595 5.488 115.875 5.488C117.155 5.488 118.315 5.776 119.355 6.352C120.395 6.912 121.211 7.712 121.803 8.752C122.411 9.792 122.715 10.992 122.715 12.352C122.715 13.712 122.403 14.912 121.779 15.952C121.171 16.992 120.339 17.8 119.283 18.376C118.243 18.936 117.075 19.216 115.779 19.216ZM115.779 16.288C116.387 16.288 116.955 16.144 117.483 15.856C118.027 15.552 118.459 15.104 118.779 14.512C119.099 13.92 119.259 13.2 119.259 12.352C119.259 11.088 118.923 10.12 118.251 9.448C117.595 8.76 116.787 8.416 115.827 8.416C114.867 8.416 114.059 8.76 113.403 9.448C112.763 10.12 112.443 11.088 112.443 12.352C112.443 13.616 112.755 14.592 113.379 15.28C114.019 15.952 114.819 16.288 115.779 16.288Z" fill="#393448"/>
</svg>
